HIERARCHY
ROOT Hip
{
	OFFSET	0.0000	0.0000	0.0000
	CHANNELS 6 Xposition Yposition Zposition Xrotation Yrotation Zrotation
	JOINT LowerSpine
	{
		OFFSET	0.0000	9.9249	-5.3708
		CHANNELS 3 Xrotation Yrotation Zrotation
		JOINT MiddleSpine
		{
			OFFSET	0.0000	9.0573	0.4731
			CHANNELS 3 Xrotation Yrotation Zrotation
			JOINT Chest
			{
				OFFSET	0.0000	11.2073	-2.4946
				CHANNELS 3 Xrotation Yrotation Zrotation
				JOINT Neck
				{
					OFFSET	0.0000	25.2552	-0.5252
					CHANNELS 3 Xrotation Yrotation Zrotation
					JOINT Head
					{
						OFFSET	0.0000	14.2619	3.8792
						CHANNELS 3 Xrotation Yrotation Zrotation
						End Site
						{
							OFFSET	0.0001	19.9276	0.5949
						}
					}
				}
				JOINT LClavicle
				{
					OFFSET	2.5497	24.3726	8.3502
					CHANNELS 3 Xrotation Yrotation Zrotation
					JOINT LShoulder
					{
						OFFSET	14.8959	3.4959	-5.6567
						CHANNELS 3 Xrotation Yrotation Zrotation
						JOINT LForearm
						{
							OFFSET	31.6418	-0.1124	-0.2742
							CHANNELS 3 Xrotation Yrotation Zrotation
							JOINT LHand
							{
								OFFSET	26.3959	0.0766	-0.1581
								CHANNELS 3 Xrotation Yrotation Zrotation
								JOINT LFinger1
								{
									OFFSET	10.2303	0.8947	2.8414
									CHANNELS 3 Xrotation Yrotation Zrotation
									JOINT LFinger11
									{
										OFFSET	3.8267	-0.9331	0.6743
										CHANNELS 3 Xrotation Yrotation Zrotation
										JOINT LFinger12
										{
											OFFSET	2.6124	-0.6373	0.4605
											CHANNELS 3 Xrotation Yrotation Zrotation
											End Site
											{
												OFFSET	1.8589	-0.5549	0.3015
											}
										}
									}
								}
								JOINT LFinger2
								{
									OFFSET	10.3830	1.0332	0.2474
									CHANNELS 3 Xrotation Yrotation Zrotation
									JOINT LFinger21
									{
										OFFSET	4.7314	0.0132	-0.0279
										CHANNELS 3 Xrotation Yrotation Zrotation
										JOINT LFinger22
										{
											OFFSET	2.6225	0.0080	-0.0160
											CHANNELS 3 Xrotation Yrotation Zrotation
											End Site
											{
												OFFSET	2.3556	-0.1663	0.0032
											}
										}
									}
								}
								JOINT LFinger3
								{
									OFFSET	9.8400	0.6894	-2.3279
									CHANNELS 3 Xrotation Yrotation Zrotation
									JOINT LFinger31
									{
										OFFSET	4.2933	-0.2174	-0.2688
										CHANNELS 3 Xrotation Yrotation Zrotation
										JOINT LFinger32
										{
											OFFSET	2.4465	-0.1231	-0.1537
											CHANNELS 3 Xrotation Yrotation Zrotation
											End Site
											{
												OFFSET	2.1632	-0.2660	-0.1022
											}
										}
									}
								}
								JOINT LFinger4
								{
									OFFSET	9.1311	-0.6940	-4.0204
									CHANNELS 3 Xrotation Yrotation Zrotation
									JOINT LFinger41
									{
										OFFSET	2.6408	-0.5507	-0.7290
										CHANNELS 3 Xrotation Yrotation Zrotation
										JOINT LFinger42
										{
											OFFSET	1.9365	-0.4033	-0.5349
											CHANNELS 3 Xrotation Yrotation Zrotation
											End Site
											{
												OFFSET	1.7188	-0.4723	-0.3943
											}
										}
									}
								}
								JOINT LFinger0
								{
									OFFSET	2.1162	-1.6018	1.6043
									CHANNELS 3 Xrotation Yrotation Zrotation
									JOINT LFinger01
									{
										OFFSET	3.9401	-1.2941	2.9707
										CHANNELS 3 Xrotation Yrotation Zrotation
										JOINT LFinger02
										{
											OFFSET	2.5946	-0.9284	1.8693
											CHANNELS 3 Xrotation Yrotation Zrotation
											End Site
											{
												OFFSET	1.9079	-0.6568	1.3065
											}
										}
									}
								}
							}
						}
					}
				}
				JOINT RClavicle
				{
					OFFSET	-2.5497	24.3726	8.3502
					CHANNELS 3 Xrotation Yrotation Zrotation
					JOINT RShoulder
					{
						OFFSET	-14.8985	3.4965	-5.6577
						CHANNELS 3 Xrotation Yrotation Zrotation
						JOINT RForearm
						{
							OFFSET	-31.6418	-0.1124	-0.2742
							CHANNELS 3 Xrotation Yrotation Zrotation
							JOINT RHand
							{
								OFFSET	-26.3959	0.0766	-0.1581
								CHANNELS 3 Xrotation Yrotation Zrotation
								JOINT RFinger1
								{
									OFFSET	-10.2303	0.8947	2.8414
									CHANNELS 3 Xrotation Yrotation Zrotation
									JOINT RFinger11
									{
										OFFSET	-3.8267	-0.9331	0.6743
										CHANNELS 3 Xrotation Yrotation Zrotation
										JOINT RFinger12
										{
											OFFSET	-2.6124	-0.6373	0.4605
											CHANNELS 3 Xrotation Yrotation Zrotation
											End Site
											{
												OFFSET	-1.8589	-0.5549	0.3015
											}
										}
									}
								}
								JOINT RFinger2
								{
									OFFSET	-10.3830	1.0332	0.2474
									CHANNELS 3 Xrotation Yrotation Zrotation
									JOINT RFinger21
									{
										OFFSET	-4.7314	0.0132	-0.0279
										CHANNELS 3 Xrotation Yrotation Zrotation
										JOINT RFinger22
										{
											OFFSET	-2.6225	0.0080	-0.0160
											CHANNELS 3 Xrotation Yrotation Zrotation
											End Site
											{
												OFFSET	-2.3556	-0.1663	0.0032
											}
										}
									}
								}
								JOINT RFinger3
								{
									OFFSET	-9.8400	0.6894	-2.3279
									CHANNELS 3 Xrotation Yrotation Zrotation
									JOINT RFinger31
									{
										OFFSET	-4.2933	-0.2174	-0.2688
										CHANNELS 3 Xrotation Yrotation Zrotation
										JOINT RFinger32
										{
											OFFSET	-2.4465	-0.1231	-0.1537
											CHANNELS 3 Xrotation Yrotation Zrotation
											End Site
											{
												OFFSET	-2.1632	-0.2660	-0.1022
											}
										}
									}
								}
								JOINT RFinger4
								{
									OFFSET	-9.1311	-0.6940	-4.0204
									CHANNELS 3 Xrotation Yrotation Zrotation
									JOINT RFinger41
									{
										OFFSET	-2.6408	-0.5507	-0.7290
										CHANNELS 3 Xrotation Yrotation Zrotation
										JOINT RFinger42
										{
											OFFSET	-1.9365	-0.4033	-0.5349
											CHANNELS 3 Xrotation Yrotation Zrotation
											End Site
											{
												OFFSET	-1.7188	-0.4723	-0.3943
											}
										}
									}
								}
								JOINT RFinger0
								{
									OFFSET	-2.1162	-1.6018	1.6043
									CHANNELS 3 Xrotation Yrotation Zrotation
									JOINT RFinger01
									{
										OFFSET	-3.9401	-1.2941	2.9707
										CHANNELS 3 Xrotation Yrotation Zrotation
										JOINT RFinger02
										{
											OFFSET	-2.5946	-0.9284	1.8693
											CHANNELS 3 Xrotation Yrotation Zrotation
											End Site
											{
												OFFSET	-1.9079	-0.6568	1.3065
											}
										}
									}
								}
							}
						}
					}
				}
			}
		}
	}
	JOINT RThigh
	{
		OFFSET	-10.6172	4.4864	-0.8752
		CHANNELS 3 Xrotation Yrotation Zrotation
		JOINT RShin
		{
			OFFSET	-0.8496	-46.1801	0.0000
			CHANNELS 3 Xrotation Yrotation Zrotation
			JOINT RFoot
			{
				OFFSET	0.0000	-45.3460	0.0000
				CHANNELS 3 Xrotation Yrotation Zrotation
				JOINT RToe
				{
					OFFSET	0.0000	-4.9839	10.4221
					CHANNELS 3 Xrotation Yrotation Zrotation
					End Site
					{
						OFFSET	0.0000	0.0000	6.9918
					}
				}
			}
		}
	}
	JOINT LThigh
	{
		OFFSET	10.6171	4.4867	-0.8752
		CHANNELS 3 Xrotation Yrotation Zrotation
		JOINT LShin
		{
			OFFSET	0.8496	-46.1804	0.0000
			CHANNELS 3 Xrotation Yrotation Zrotation
			JOINT LFoot
			{
				OFFSET	0.0000	-45.3460	0.0000
				CHANNELS 3 Xrotation Yrotation Zrotation
				JOINT LToe
				{
					OFFSET	0.0000	-4.9840	10.4221
					CHANNELS 3 Xrotation Yrotation Zrotation
					End Site
					{
						OFFSET	0.0000	0.0000	6.9917
					}
				}
			}
		}
	}
}
MOTION
Frames:	4
Frame Time: 0.0333333000
	8.9653	99.6285	1.8102	-3.738367	-3.067891	-9.942007	0.000000	0.000000	0.000000	6.383607	-2.044056	0.467759	21.351180	-5.883894	2.376757	0.000000	0.000000	0.000000	0.000000	0.000000	0.000000	0.000000	0.000000	-12.552870	3.208429	-13.717740	-48.314070	-11.397360	-32.507660	0.044144	0.000000	0.000000	0.000000	0.000000	0.000000	0.000000	0.000000	0.000000	0.000000	0.000000	0.000000	0.000000	0.000000	0.000000	0.000000	0.000000	0.000000	0.000000	0.000000	0.000000	0.000000	0.000000	0.000000	0.000000	0.000000	0.000000	0.000000	0.000000	0.000000	0.000000	0.000000	0.000000	0.000000	0.000000	0.000000	0.000000	0.000000	0.000000	0.000000	0.000000	0.000000	0.000000	0.000000	0.000000	0.000000	0.000000	0.000000	0.000000	0.000000	0.000000	14.122560	3.928883	29.100360	51.452670	-4.492618	47.017670	0.061929	0.000000	0.000000	0.000000	0.000000	0.000000	0.000000	0.000000	0.000000	0.000000	0.000000	0.000000	0.000000	0.000000	0.000000	0.000000	0.000000	0.000000	0.000000	0.000000	0.000000	0.000000	0.000000	0.000000	0.000000	0.000000	0.000000	0.000000	0.000000	0.000000	0.000000	0.000000	0.000000	0.000000	0.000000	0.000000	0.000000	0.000000	0.000000	0.000000	0.000000	0.000000	0.000000	0.000000	0.000000	0.000000	0.000000	0.000000	0.000000	2.620769	-0.317506	0.751728	14.132220	0.175090	0.707684	2.414417	-3.380434	-1.555119	0.000000	0.000000	0.000000	-1.892452	0.179544	5.831901	16.581580	0.585309	0.460206	-2.647470	-3.331311	-1.688962	0.000000	0.000000	0.000000
	8.5842	99.6375	1.9693	-4.015121	-2.582716	-9.985630	0.000000	0.000000	0.000000	6.364432	-1.960948	0.469876	21.273810	-5.656295	2.345172	0.000000	0.000000	0.000000	0.000000	0.000000	0.000000	0.000000	0.000000	-12.697000	3.467426	-10.937900	-49.812480	-12.999180	-32.929380	0.059547	0.000000	0.000000	0.000000	0.000000	0.000000	0.000000	0.000000	0.000000	0.000000	0.000000	0.000000	0.000000	0.000000	0.000000	0.000000	0.000000	0.000000	0.000000	0.000000	0.000000	0.000000	0.000000	0.000000	0.000000	0.000000	0.000000	0.000000	0.000000	0.000000	0.000000	0.000000	0.000000	0.000000	0.000000	0.000000	0.000000	0.000000	0.000000	0.000000	0.000000	0.000000	0.000000	0.000000	0.000000	0.000000	0.000000	0.000000	0.000000	0.000000	0.000000	14.080320	4.480927	30.189930	49.780720	-3.279591	47.185060	0.070147	0.000000	0.000000	0.000000	0.000000	0.000000	0.000000	0.000000	0.000000	0.000000	0.000000	0.000000	0.000000	0.000000	0.000000	0.000000	0.000000	0.000000	0.000000	0.000000	0.000000	0.000000	0.000000	0.000000	0.000000	0.000000	0.000000	0.000000	0.000000	0.000000	0.000000	0.000000	0.000000	0.000000	0.000000	0.000000	0.000000	0.000000	0.000000	0.000000	0.000000	0.000000	0.000000	0.000000	0.000000	0.000000	0.000000	0.000000	0.000000	2.804246	-0.323165	1.352036	15.294480	0.063302	0.252573	3.027717	-2.045918	-0.904444	0.000000	0.000000	0.000000	-1.590326	0.197196	6.238527	16.728920	0.561931	0.274981	-2.915135	-3.489457	-1.779634	0.000000	0.000000	0.000000
	8.1907	99.6228	2.1115	-4.250362	-2.104571	-9.967707	0.000000	0.000000	0.000000	6.344321	-1.881670	0.470949	21.190210	-5.416811	2.312185	0.000000	0.000000	0.000000	0.000000	0.000000	0.000000	0.000000	0.000000	-12.842100	3.956579	-8.739236	-51.030960	-14.093580	-33.377800	0.060627	0.000000	0.000000	0.000000	0.000000	0.000000	0.000000	0.000000	0.000000	0.000000	0.000000	0.000000	0.000000	0.000000	0.000000	0.000000	0.000000	0.000000	0.000000	0.000000	0.000000	0.000000	0.000000	0.000000	0.000000	0.000000	0.000000	0.000000	0.000000	0.000000	0.000000	0.000000	0.000000	0.000000	0.000000	0.000000	0.000000	0.000000	0.000000	0.000000	0.000000	0.000000	0.000000	0.000000	0.000000	0.000000	0.000000	0.000000	0.000000	0.000000	0.000000	14.064400	5.043528	30.757070	48.818230	-2.428357	47.390000	0.079640	0.000000	0.000000	0.000000	0.000000	0.000000	0.000000	0.000000	0.000000	0.000000	0.000000	0.000000	0.000000	0.000000	0.000000	0.000000	0.000000	0.000000	0.000000	0.000000	0.000000	0.000000	0.000000	0.000000	0.000000	0.000000	0.000000	0.000000	0.000000	0.000000	0.000000	0.000000	0.000000	0.000000	0.000000	0.000000	0.000000	0.000000	0.000000	0.000000	0.000000	0.000000	0.000000	0.000000	0.000000	0.000000	0.000000	0.000000	0.000000	3.035816	-0.325676	1.949385	15.458170	-0.039448	-0.098969	2.317378	-0.261716	-0.106169	0.000000	0.000000	0.000000	-1.390983	0.209820	6.626383	16.970170	0.530684	0.041383	-3.225948	-3.638659	-1.868280	0.000000	0.000000	0.000000
	7.7468	99.5933	2.2437	-4.555411	-1.374564	-9.821371	0.000000	0.000000	0.000000	6.323364	-1.806830	0.470996	21.100840	-5.175650	2.279831	0.000000	0.000000	0.000000	0.000000	0.000000	0.000000	0.000000	0.000000	-12.986790	4.697517	-7.616947	-51.955820	-14.352150	-33.205140	0.057850	0.000000	0.000000	0.000000	0.000000	0.000000	0.000000	0.000000	0.000000	0.000000	0.000000	0.000000	0.000000	0.000000	0.000000	0.000000	0.000000	0.000000	0.000000	0.000000	0.000000	0.000000	0.000000	0.000000	0.000000	0.000000	0.000000	0.000000	0.000000	0.000000	0.000000	0.000000	0.000000	0.000000	0.000000	0.000000	0.000000	0.000000	0.000000	0.000000	0.000000	0.000000	0.000000	0.000000	0.000000	0.000000	0.000000	0.000000	0.000000	0.000000	0.000000	14.050840	5.536887	30.328170	48.879170	-2.228745	47.975130	0.078097	0.000000	0.000000	0.000000	0.000000	0.000000	0.000000	0.000000	0.000000	0.000000	0.000000	0.000000	0.000000	0.000000	0.000000	0.000000	0.000000	0.000000	0.000000	0.000000	0.000000	0.000000	0.000000	0.000000	0.000000	0.000000	0.000000	0.000000	0.000000	0.000000	0.000000	0.000000	0.000000	0.000000	0.000000	0.000000	0.000000	0.000000	0.000000	0.000000	0.000000	0.000000	0.000000	0.000000	0.000000	0.000000	0.000000	0.000000	0.000000	3.587593	-0.326072	2.477938	14.819060	-0.088721	-0.042541	1.573558	-0.114227	-0.058874	0.000000	0.000000	0.000000	-1.184142	0.224893	6.928683	17.264060	0.507428	-0.130863	-3.483345	-4.007058	-2.068517	0.000000	0.000000	0.000000
